<svg xmlns="http://www.w3.org/2000/svg" viewBox="0 0 700 700">
  <!-- Rounded square background -->
  <rect x="10" y="10" width="680" height="680" rx="80" ry="80" fill="#F5F5F5"/>
  
  <!-- Rounded square border -->
  <rect x="10" y="10" width="680" height="680" rx="80" ry="80" fill="none" stroke="#C9746C" stroke-width="20"/>
  
  <!-- Kangaroo silhouette -->
  <g fill="#C9746C">
    <!-- Tail (curved, thick at base, tapering) -->
    <path d="M 180 520 Q 120 580 80 620 Q 70 630 75 640 Q 80 650 95 645 Q 140 625 190 560 Q 220 520 240 480 L 200 490 Q 190 510 180 520 Z"/>
    
    <!-- Back leg (powerful hind leg) -->
    <path d="M 240 480 L 260 420 Q 270 390 290 370 Q 310 350 320 360 L 340 430 Q 350 470 355 500 L 380 570 Q 385 595 375 605 Q 365 615 350 610 L 320 595 Q 300 585 285 570 L 260 540 Q 250 520 245 500 L 240 480 Z"/>
    
    <!-- Body (curved, organic shape) -->
    <path d="M 290 370 Q 320 340 360 310 Q 400 280 440 260 Q 470 245 490 240 L 520 235 Q 540 235 550 250 Q 555 265 550 285 L 540 320 Q 535 340 530 360 L 340 430 L 290 370 Z"/>
    
    <!-- Chest/belly area -->
    <path d="M 440 260 Q 420 280 400 310 L 380 350 Q 370 370 365 390 L 360 420 Q 358 440 360 460 L 340 430 L 380 350 L 440 260 Z"/>
    
    <!-- Front leg (smaller, bent) -->
    <path d="M 400 310 L 420 330 Q 430 345 435 365 L 445 400 Q 450 420 450 440 L 455 465 Q 458 480 450 490 Q 442 500 430 495 L 410 485 Q 395 475 385 460 L 375 440 Q 370 420 368 400 L 365 380 Q 370 360 380 350 L 400 310 Z"/>
    
    <!-- Neck -->
    <path d="M 490 240 Q 510 220 530 200 Q 545 185 560 175 L 520 235 L 490 240 Z"/>
    
    <!-- Head (curved, with ear) -->
    <path d="M 560 175 Q 580 160 600 155 Q 620 150 635 160 Q 645 170 645 190 Q 645 210 635 230 Q 625 245 610 255 L 585 265 Q 565 270 550 265 Q 540 260 535 250 L 530 235 Q 535 215 545 200 Q 552 185 560 175 Z"/>
    
    <!-- Ear (distinctive long ear) -->
    <path d="M 600 155 Q 610 140 625 125 Q 635 115 645 120 Q 655 125 655 140 Q 655 155 650 170 Q 645 180 635 185 L 625 188 Q 615 185 610 175 Q 605 165 605 155 L 600 155 Z"/>
    
    <!-- Head detail (snout area) -->
    <path d="M 635 230 Q 650 240 665 255 Q 675 265 670 275 Q 665 285 650 280 L 625 270 Q 615 265 610 255 L 635 230 Z"/>
    
    <!-- Front arm detail -->
    <path d="M 530 200 Q 540 190 555 185 Q 565 182 575 190 Q 580 200 575 210 L 560 230 Q 550 240 540 235 L 530 225 Q 528 210 530 200 Z"/>
  </g>
</svg>
